<svg width="350" height="350" viewBox="0 0 350 350" fill="none" xmlns="http://www.w3.org/2000/svg">
<path d="M157.228 5.92405L38.5454 74.3231C27.0712 80.9135 19.9975 93.1381 20.001 106.371V243.169C19.905 256.31 26.7972 268.514 38.1003 275.217L156.783 343.616C168.258 350.242 182.396 350.242 193.871 343.616L312.554 275.217C323.948 268.566 330.953 256.363 330.949 243.169V106.371C331.046 93.2675 324.222 81.0846 312.999 74.3231L194.316 5.92405C182.825 -0.641349 168.72 -0.641349 157.228 5.92405Z" fill="#D00000"/>
<path d="M302.263 183.626C289.75 179.048 275.832 185.629 271.148 198.338C271.09 198.495 271.079 198.653 271.024 198.816L246.41 207.028C235.905 193.084 218.125 186.93 201.238 191.395L173.861 149.836C186.086 133.337 185.485 110.584 172.413 95.0417L184.191 74.6179C194.509 73.2995 202.909 65.4547 205.047 55.1389C207.185 44.823 202.583 34.3481 193.62 29.1291C184.657 23.9101 173.341 25.1167 165.522 32.1252C157.704 39.1336 155.134 50.3732 159.143 60.0336L147.402 80.3979C134.885 78.0475 121.923 81.3992 111.954 89.5636C101.985 97.7281 96.0179 109.88 95.6363 122.794L70.9903 130.995C69.31 129.777 67.4778 128.788 65.5398 128.052C56.3757 124.686 46.0534 127.264 39.386 134.583C32.7186 141.902 31.0193 152.522 35.0804 161.489C39.1414 170.457 48.1631 176.007 57.9387 175.551C67.7143 175.095 76.3186 168.724 79.7394 159.407C79.7969 159.251 79.8086 159.093 79.8633 158.93L104.478 150.718C114.982 164.662 132.762 170.816 149.649 166.351L177.026 207.91C164.801 224.409 165.403 247.162 178.474 262.704L166.696 283.128C156.378 284.446 147.979 292.291 145.84 302.607C143.702 312.923 148.304 323.398 157.267 328.617C166.231 333.836 177.547 332.629 185.365 325.621C193.184 318.612 195.753 307.373 191.744 297.712L203.485 277.348C216.002 279.698 228.965 276.347 238.934 268.182C248.902 260.018 254.869 247.866 255.251 234.952L279.897 226.751C281.577 227.969 283.409 228.958 285.347 229.694C297.861 234.29 311.791 227.703 316.462 214.981C321.133 202.26 314.776 188.222 302.263 183.626ZM156.892 83.3343L169.842 60.868C171.208 58.5255 174.178 57.7276 176.477 59.0859C178.776 60.4441 179.532 63.4442 178.167 65.7867L165.245 88.1902C162.652 86.2591 159.85 84.6303 156.892 83.3343ZM186.555 36.5687C191.877 38.5056 195.556 43.4261 195.964 49.1525C196.373 54.8789 193.435 60.3539 188.452 63.1544C188.484 57.9671 185.79 53.1828 181.379 50.5934C176.968 48.004 171.504 48.0003 167.036 50.5837C166.949 45.7479 169.246 41.1603 173.163 38.3483C177.079 35.5363 182.101 34.869 186.555 36.5687ZM52.0074 164.906C44.4994 162.149 40.685 153.726 43.4876 146.093C46.2903 138.46 54.6487 134.508 62.1567 137.266C69.6647 140.023 73.4791 148.446 70.6765 156.079C67.8738 163.712 59.5154 167.664 52.0074 164.906ZM78.0696 138.928L108.351 128.839C110.883 127.992 113.594 129.366 114.421 131.915C115.234 134.485 113.846 137.261 111.308 138.138L81.0284 148.264C80.6794 144.974 79.6727 141.798 78.0696 138.928ZM114.444 147.357C119.976 145.412 123.854 140.312 124.286 134.413C124.718 128.514 121.62 122.964 116.423 120.328C113.077 118.618 109.187 118.316 105.593 119.487C107.519 105.03 118.244 93.2875 132.336 90.206C146.428 87.1246 160.81 93.3773 168.198 105.798C175.587 118.218 174.368 134.093 165.16 145.384C155.951 156.675 140.764 160.916 127.289 155.959C122.393 154.152 117.996 151.204 114.444 147.357ZM158.897 162.69C161.805 161.164 164.538 159.314 167.046 157.177L191.993 195.047C189.086 196.573 186.352 198.422 183.844 200.56L158.897 162.69ZM193.993 274.39L181.043 296.856C179.641 299.149 176.715 299.935 174.408 298.638C173.303 297.987 172.504 296.914 172.187 295.657C171.87 294.4 172.061 293.062 172.718 291.937L185.64 269.534C188.233 271.473 191.036 273.109 193.995 274.411L193.993 274.39ZM164.332 321.177C159.011 319.24 155.331 314.32 154.923 308.593C154.515 302.867 157.452 297.392 162.436 294.591C162.418 299.793 165.125 304.586 169.547 307.184C170.271 307.597 171.027 307.949 171.808 308.239C175.757 309.694 180.154 309.327 183.851 307.235C183.913 312.058 181.606 316.623 177.694 319.417C173.781 322.212 168.775 322.871 164.332 321.177ZM199.917 266.282C186.779 261.51 177.985 249.008 177.792 234.83C177.599 220.652 186.047 207.724 199.045 202.307C212.044 196.889 226.91 200.1 236.445 210.384C228.952 213.044 224.864 221.253 227.24 228.872C228.573 233.163 231.805 236.562 235.988 238.072C238.979 239.155 242.247 239.218 245.298 238.249C243.945 248.607 238.007 257.823 229.17 263.282C220.333 268.741 209.562 269.845 199.917 266.282ZM242.566 228.897C240.033 229.672 237.362 228.327 236.464 225.824C235.649 223.257 237.035 220.482 239.57 219.604L269.859 209.482C270.208 212.771 271.215 215.948 272.818 218.818L242.566 228.897ZM288.73 220.48C281.222 217.723 277.408 209.3 280.211 201.667C283.013 194.034 291.372 190.082 298.88 192.839C306.388 195.597 310.202 204.02 307.399 211.653C304.597 219.285 296.238 223.238 288.73 220.48Z" fill="white"/>
<path d="M302.263 150.447C298.626 142.038 289.491 137.377 280.382 139.282L263.307 129.657C263.414 124.899 262.498 120.185 260.621 115.827C258.313 110.477 254.61 105.842 249.886 102.39L255.224 80.9199C263.701 75.0357 266.197 63.7163 260.933 55.0238C255.67 46.3313 244.448 43.2383 235.259 47.9476C226.071 52.6569 222.059 63.5582 226.08 72.8872C226.271 73.3306 226.566 73.7292 226.789 74.159L221.179 96.6244C219.307 97.0565 217.473 97.6482 215.7 98.3927C203.386 103.644 195.193 115.457 194.71 128.659C194.227 141.861 201.541 154.046 213.449 159.88C225.358 165.714 239.692 164.133 250.174 155.83L265.776 164.602C265.936 165.059 266.023 165.547 266.214 165.99C270.436 175.784 281.928 180.244 291.883 175.952C301.838 171.66 306.485 160.241 302.263 150.447ZM240.282 56.2486C245.259 54.1026 251.005 56.3327 253.116 61.2298C255.227 66.1268 252.904 71.8364 247.927 73.9825C242.949 76.1286 237.203 73.8985 235.092 69.0014C232.981 64.1043 235.305 58.3947 240.282 56.2486ZM244.304 84.4824L239.458 103.921C238.809 106.524 236.156 108.139 233.532 107.528C230.908 106.918 229.306 104.313 229.955 101.71L234.831 82.1683C237.731 83.7209 240.99 84.517 244.304 84.4824ZM206.548 139.142C201.288 126.899 207.092 112.637 219.523 107.26C219.879 107.106 220.235 107.016 220.588 106.879C220.747 107.471 220.943 108.052 221.177 108.618C222.833 112.482 226.114 115.425 230.168 116.68C234.222 117.935 238.649 117.379 242.298 115.157C243.718 114.271 244.978 113.155 246.026 111.857C248.415 114.064 250.315 116.737 251.609 119.712C256.886 131.955 251.077 146.229 238.634 151.594C226.191 156.96 211.826 151.384 206.548 139.142ZM257.084 148.529C258.963 145.85 260.447 142.925 261.493 139.84L270.3 144.802C268.002 147.178 266.343 150.084 265.477 153.248L257.084 148.529ZM275.226 162.104C273.115 157.207 275.439 151.498 280.416 149.351C285.393 147.205 291.14 149.435 293.251 154.333C295.362 159.23 293.038 164.939 288.061 167.085C285.671 168.116 282.976 168.17 280.569 167.236C278.162 166.302 276.24 164.456 275.226 162.104Z" fill="white"/>
<path d="M67.7062 194.746C61.6618 186.581 50.2216 184.573 41.5337 190.152C32.8457 195.731 29.881 206.989 34.7511 215.908C39.6211 224.827 50.6606 228.357 60.0069 223.983L78.8277 229.456C79.8099 234.113 81.7772 238.493 84.5996 242.309C88.0672 246.99 92.7305 250.658 98.1174 252.94L97.82 275.062C90.9096 282.726 91.0631 294.316 98.1712 301.578C105.279 308.839 116.911 309.289 124.782 302.607C132.653 295.925 134.072 284.395 128.028 276.23C127.741 275.842 127.363 275.521 127.048 275.154L127.391 252.013C129.113 251.16 130.76 250.162 132.313 249.029C143.104 241.105 148.385 227.734 145.843 214.77C143.3 201.806 133.399 191.612 120.473 188.65C107.547 185.689 93.9523 190.5 85.6413 200.977L68.4497 195.998C68.19 195.589 67.9935 195.134 67.7062 194.746ZM44.0437 212.267C40.8709 207.981 41.8301 201.892 46.1863 198.666C50.5424 195.441 56.6459 196.3 59.8187 200.586C62.9915 204.872 62.0323 210.962 57.6761 214.187C53.32 217.413 47.2165 216.553 44.0437 212.267ZM117.998 295.671C113.642 298.897 107.538 298.037 104.365 293.751C101.193 289.465 102.152 283.376 106.508 280.151C110.864 276.925 116.968 277.785 120.14 282.071C123.313 286.357 122.354 292.446 117.998 295.671ZM107.653 269.12L107.921 249.069C107.958 246.387 110.173 244.209 112.867 244.204C115.562 244.2 117.715 246.371 117.678 249.053L117.393 269.196C114.217 268.353 110.867 268.327 107.653 269.12ZM131.925 207.266C139.84 217.985 137.444 233.195 126.568 241.268C126.245 241.508 125.911 241.683 125.584 241.901C123.016 237.137 117.95 234.258 112.483 234.457C107.016 234.656 102.079 237.898 99.715 242.842C96.8853 241.239 94.4253 239.069 92.4871 236.468C84.555 225.753 86.9532 210.53 97.8436 202.466C108.734 194.402 123.993 196.551 131.925 207.266ZM80.5803 209.662C79.3624 212.699 78.5846 215.886 78.2705 219.128L68.5696 216.333C70.2666 213.487 71.2169 210.27 71.3315 206.983L80.5803 209.662Z" fill="white"/>
</svg>
